<svg xmlns="http://www.w3.org/2000/svg" viewBox="0 0 128 128" role="img" aria-label="Sagar favicon">
  <defs>
    <linearGradient id="bg" x1="0" y1="0" x2="1" y2="1">
      <stop offset="0" stop-color="#3B82F6"/>
      <stop offset="0.58" stop-color="#22D3EE"/>
      <stop offset="1" stop-color="#A855F7"/>
    </linearGradient>
    <filter id="shadow" x="-30%" y="-30%" width="160%" height="160%">
      <feDropShadow dx="0" dy="10" stdDeviation="12" flood-color="#22D3EE" flood-opacity=".3"/>
    </filter>
  </defs>
  <rect width="128" height="128" rx="30" fill="#0B0F19"/>
  <rect x="10" y="10" width="108" height="108" rx="26" fill="url(#bg)" filter="url(#shadow)"/>
  <path d="M36 78c7 8 25 10 37 4 9-4 12-12 5-18-5-4-13-5-22-7-8-2-12-4-11-8 1-5 9-7 18-6 8 1 15 4 19 9l11-12c-8-9-22-13-36-12-17 1-30 10-31 23-1 12 9 18 25 22 9 2 14 3 14 7 0 5-9 7-18 5-8-1-15-5-20-11L36 78Z" fill="#07111F"/>
</svg>
