<svg xmlns="http://www.w3.org/2000/svg" viewBox="0 0 960 560" role="img" aria-labelledby="title desc">
  <title id="title">Elevator controller simulator illustration</title>
  <desc id="desc">A dark elevator shaft and control panel representing a C simulator.</desc>
  <defs>
    <linearGradient id="bg" x1="0" y1="0" x2="1" y2="1">
      <stop offset="0" stop-color="#0B0F19"/>
      <stop offset="1" stop-color="#18243A"/>
    </linearGradient>
    <linearGradient id="cyan" x1="0" y1="0" x2="1" y2="1">
      <stop offset="0" stop-color="#3B82F6"/>
      <stop offset="1" stop-color="#22D3EE"/>
    </linearGradient>
  </defs>
  <rect width="960" height="560" fill="url(#bg)"/>
  <g opacity=".18" stroke="#94A3B8" stroke-width="1">
    <path d="M160 0v560M320 0v560M480 0v560M640 0v560M800 0v560M0 112h960M0 224h960M0 336h960M0 448h960"/>
  </g>
  <rect x="132" y="64" width="410" height="432" rx="24" fill="#0F172A" stroke="#22D3EE" stroke-opacity=".34"/>
  <rect x="232" y="110" width="212" height="342" rx="16" fill="#111827" stroke="#FFFFFF" stroke-opacity=".14"/>
  <path d="M338 110v342" stroke="#334155" stroke-width="8"/>
  <path d="M250 132h176M250 174h176M250 216h176M250 258h176M250 300h176M250 342h176M250 384h176" stroke="#1F2937" stroke-width="4"/>
  <rect x="266" y="204" width="146" height="98" rx="10" fill="url(#cyan)" opacity=".9"/>
  <path d="M338 230l-30 42h60l-30-42Z" fill="#07111F"/>
  <rect x="602" y="92" width="236" height="376" rx="28" fill="#111827" stroke="#FFFFFF" stroke-opacity=".14"/>
  <text x="642" y="146" fill="#F8FAFC" font-family="Inter, Arial" font-size="30" font-weight="900">CTRL</text>
  <text x="642" y="182" fill="#A8B3C7" font-family="JetBrains Mono, Consolas" font-size="18">state: MOVING</text>
  <g fill="#1F2937" stroke="#FFFFFF" stroke-opacity=".12">
    <circle cx="660" cy="248" r="27"/>
    <circle cx="720" cy="248" r="27"/>
    <circle cx="780" cy="248" r="27"/>
    <circle cx="660" cy="314" r="27"/>
    <circle cx="720" cy="314" r="27"/>
    <circle cx="780" cy="314" r="27"/>
    <circle cx="660" cy="380" r="27"/>
    <circle cx="720" cy="380" r="27"/>
    <circle cx="780" cy="380" r="27"/>
  </g>
  <g fill="#22D3EE" font-family="Inter, Arial" font-size="20" font-weight="900" text-anchor="middle">
    <text x="660" y="255">1</text><text x="720" y="255">2</text><text x="780" y="255">3</text>
    <text x="660" y="321">4</text><text x="720" y="321">5</text><text x="780" y="321">6</text>
    <text x="660" y="387">↑</text><text x="720" y="387">C</text><text x="780" y="387">↓</text>
  </g>
</svg>
