<svg xmlns="http://www.w3.org/2000/svg" viewBox="0 0 960 560" role="img" aria-labelledby="title desc">
  <title id="title">Premium portfolio website illustration</title>
  <desc id="desc">A dark responsive website dashboard with hero, cards, and analytics panels.</desc>
  <defs>
    <linearGradient id="bg" x1="0" y1="0" x2="1" y2="1">
      <stop offset="0" stop-color="#0B0F19"/>
      <stop offset="1" stop-color="#1B1235"/>
    </linearGradient>
    <linearGradient id="accent" x1="0" y1="0" x2="1" y2="1">
      <stop offset="0" stop-color="#3B82F6"/>
      <stop offset=".55" stop-color="#22D3EE"/>
      <stop offset="1" stop-color="#A855F7"/>
    </linearGradient>
  </defs>
  <rect width="960" height="560" fill="url(#bg)"/>
  <rect x="82" y="72" width="796" height="416" rx="28" fill="#0F172A" stroke="#FFFFFF" stroke-opacity=".14"/>
  <rect x="82" y="72" width="796" height="66" rx="28" fill="#111827"/>
  <circle cx="128" cy="105" r="9" fill="#EF4444"/>
  <circle cx="156" cy="105" r="9" fill="#F59E0B"/>
  <circle cx="184" cy="105" r="9" fill="#22C55E"/>
  <rect x="126" y="186" width="320" height="28" rx="14" fill="#F8FAFC" opacity=".88"/>
  <rect x="126" y="238" width="400" height="20" rx="10" fill="#93C5FD"/>
  <rect x="126" y="278" width="338" height="16" rx="8" fill="#334155"/>
  <rect x="126" y="312" width="280" height="16" rx="8" fill="#334155"/>
  <rect x="126" y="372" width="156" height="48" rx="12" fill="url(#accent)"/>
  <rect x="554" y="180" width="244" height="230" rx="24" fill="#111827" stroke="#22D3EE" stroke-opacity=".34"/>
  <circle cx="676" cy="265" r="72" fill="url(#accent)" opacity=".88"/>
  <text x="640" y="275" fill="#06101C" font-family="Inter, Arial" font-size="42" font-weight="950">SK</text>
  <rect x="594" y="358" width="164" height="16" rx="8" fill="#334155"/>
  <rect x="620" y="388" width="112" height="14" rx="7" fill="#22D3EE"/>
  <g stroke="#22D3EE" opacity=".32">
    <path d="M80 486 878 72M82 138 878 488"/>
  </g>
</svg>
