<svg xmlns="http://www.w3.org/2000/svg" viewBox="0 0 960 560" role="img" aria-labelledby="title desc">
  <title id="title">RAG AI application illustration</title>
  <desc id="desc">Documents flowing into a retrieval layer and an AI response panel.</desc>
  <defs>
    <linearGradient id="bg" x1="0" y1="0" x2="1" y2="1">
      <stop offset="0" stop-color="#0B0F19"/>
      <stop offset="1" stop-color="#12233F"/>
    </linearGradient>
    <linearGradient id="line" x1="0" y1="0" x2="1" y2="0">
      <stop offset="0" stop-color="#3B82F6"/>
      <stop offset=".5" stop-color="#22D3EE"/>
      <stop offset="1" stop-color="#A855F7"/>
    </linearGradient>
  </defs>
  <rect width="960" height="560" fill="url(#bg)"/>
  <g opacity=".16" stroke="#A8B3C7">
    <path d="M0 120h960M0 240h960M0 360h960M0 480h960M160 0v560M320 0v560M480 0v560M640 0v560M800 0v560"/>
  </g>
  <g fill="#111827" stroke="#FFFFFF" stroke-opacity=".14">
    <rect x="86" y="120" width="180" height="230" rx="18"/>
    <rect x="124" y="156" width="180" height="230" rx="18"/>
    <rect x="162" y="192" width="180" height="230" rx="18"/>
  </g>
  <g fill="#64748B">
    <rect x="194" y="242" width="106" height="12" rx="6"/>
    <rect x="194" y="272" width="84" height="12" rx="6"/>
    <rect x="194" y="302" width="116" height="12" rx="6"/>
  </g>
  <rect x="410" y="182" width="150" height="150" rx="38" fill="#111827" stroke="#22D3EE" stroke-opacity=".48"/>
  <text x="452" y="248" fill="#22D3EE" font-family="Inter, Arial" font-size="22" font-weight="900">RAG</text>
  <text x="438" y="286" fill="#A8B3C7" font-family="Inter, Arial" font-size="18">retrieve</text>
  <rect x="638" y="122" width="244" height="316" rx="24" fill="#111827" stroke="#FFFFFF" stroke-opacity=".14"/>
  <rect x="674" y="168" width="144" height="18" rx="9" fill="#22D3EE"/>
  <rect x="674" y="218" width="170" height="14" rx="7" fill="#334155"/>
  <rect x="674" y="252" width="126" height="14" rx="7" fill="#334155"/>
  <rect x="674" y="286" width="154" height="14" rx="7" fill="#334155"/>
  <rect x="674" y="342" width="112" height="40" rx="20" fill="#A855F7" opacity=".82"/>
  <path d="M342 282h64M560 258h78" stroke="url(#line)" stroke-width="8" stroke-linecap="round" stroke-dasharray="14 18"/>
  <circle cx="374" cy="282" r="10" fill="#22D3EE"/>
  <circle cx="598" cy="258" r="10" fill="#A855F7"/>
</svg>
